<svg width="16" height="16" viewBox="0 0 16 16" fill="none" xmlns="http://www.w3.org/2000/svg">
<mask id="path-1-inside-1_2147_233" fill="white">
<path d="M0 2C0 0.895431 0.895431 0 2 0H14C15.1046 0 16 0.895431 16 2V14C16 15.1046 15.1046 16 14 16H2C0.895431 16 0 15.1046 0 14V2Z"/>
</mask>
<path d="M2 2H14V-2H2V2ZM14 2V14H18V2H14ZM14 14H2V18H14V14ZM2 14V2H-2V14H2ZM2 14H-2C-2 16.2091 -0.209139 18 2 18V14ZM14 14V18C16.2091 18 18 16.2091 18 14H14ZM14 2H18C18 -0.209139 16.2091 -2 14 -2V2ZM2 -2C-0.209139 -2 -2 -0.209139 -2 2H2V-2Z" fill="#C6C6C6" mask="url(#path-1-inside-1_2147_233)"/>
</svg>
